<?xml version="1.0" encoding="UTF-8" standalone="no"?>
<!DOCTYPE svg PUBLIC "-//W3C//DTD SVG 1.1//EN" "http://www.w3.org/Graphics/SVG/1.1/DTD/svg11.dtd">
<!-- Generiert durch Microsoft Visio, SVG Export Komponentenschnitt.svg Page-2 -->
<svg xmlns="http://www.w3.org/2000/svg" xmlns:xlink="http://www.w3.org/1999/xlink" xmlns:ev="http://www.w3.org/2001/xml-events"
		xmlns:v="http://schemas.microsoft.com/visio/2003/SVGExtensions/" width="11.6929in" height="8.26772in"
		viewBox="0 0 841.89 595.276" xml:space="preserve" color-interpolation-filters="sRGB" class="st10">
	<v:documentProperties v:langID="1031" v:metric="true" v:viewMarkup="false">
		<v:userDefs>
			<v:ud v:nameU="msvNoAutoConnect" v:prompt="" v:val="VT0(0):26"/>
		</v:userDefs>
	</v:documentProperties>

	<style type="text/css">
	<![CDATA[
		.st1 {fill:#5b9bd5}
		.st2 {stroke:#ffffff;stroke-linecap:round;stroke-linejoin:round;stroke-width:0.5}
		.st3 {fill:#ffffff;font-family:Calibri;font-size:0.666664em;font-weight:bold}
		.st4 {fill:#5b9bd5;stroke:#ffffff;stroke-linecap:round;stroke-linejoin:round;stroke-width:0.5}
		.st5 {marker-end:url(#mrkr20-29);stroke:#5592c9;stroke-linecap:round;stroke-linejoin:round;stroke-width:0.5}
		.st6 {fill:#5592c9;fill-opacity:1;stroke:#5592c9;stroke-opacity:1;stroke-width:0.11210762331839}
		.st7 {fill:#ffffff;stroke:none;stroke-linecap:butt;stroke-width:7.2}
		.st8 {fill:#41719d;font-family:Calibri;font-size:0.666664em}
		.st9 {stroke:#5592c9;stroke-linecap:round;stroke-linejoin:round;stroke-width:0.5}
		.st10 {fill:none;fill-rule:evenodd;font-size:12px;overflow:visible;stroke-linecap:square;stroke-miterlimit:3}
	]]>
	</style>

	<defs id="Markers">
		<g id="lend20">
			<path
					d="M 0 0.75 C -0.414214 0.75 -0.75 0.414214 -0.75 0 -0.75 -0.414214 -0.414214 -0.75 0 -0.75 0.414214 -0.75 0.75 -0.414214 0.75 0 0.75 0.414214 0.414214 0.75 0 0.75 Z "
					style="stroke-linecap:round;stroke-linejoin:round;fill:none"/>
		</g>
		<marker id="mrkr20-29" class="st6" v:arrowType="20" v:arrowSize="4" v:setback="6.69" refX="-6.69" orient="auto"
				markerUnits="strokeWidth" overflow="visible">
			<use xlink:href="#lend20" transform="scale(-8.92,-8.92) "/>
		</marker>
	</defs>
	<g v:mID="4" v:index="2" v:groupContext="foregroundPage">
		<v:userDefs>
			<v:ud v:nameU="msvThemeOrder" v:val="VT0(0):26"/>
		</v:userDefs>
		<title>Zeichenblatt-2</title>
		<v:pageProperties v:drawingScale="0.0393701" v:pageScale="0.0393701" v:drawingUnits="24" v:shadowOffsetX="8.50394"
				v:shadowOffsetY="-8.50394"/>
		<v:layer v:name="Verbinder" v:index="0"/>
		<g id="group1-1" transform="translate(162.425,-332.504)" v:mID="1" v:groupContext="group">
			<v:userDefs>
				<v:ud v:nameU="F" v:val="VT0(0):26"/>
				<v:ud v:nameU="Format" v:val="VT0(0):26"/>
				<v:ud v:nameU="ResizeIcon" v:val="VT0(0):26"/>
			</v:userDefs>
			<title>Component</title>
			<g id="shape2-2" v:mID="2" v:groupContext="shape">
				<title>Tabelle.2</title>
				<path d="M72 595.28 L0 595.28 L72 595.28 Z" class="st1"/>
			</g>
			<g id="shape3-5" v:mID="3" v:groupContext="shape">
				<title>Tabelle.3</title>
				<path d="M72 595.28 L0 595.28 L72 595.28 Z" class="st1"/>
			</g>
			<g id="shape4-8" v:mID="4" v:groupContext="shape">
				<title>Tabelle.4</title>
				<path d="M72 595.28 L0 595.28 L72 595.28 Z" class="st1"/>
			</g>
			<g id="shape5-11" v:mID="5" v:groupContext="shape" transform="translate(72,0)">
				<title>Tabelle.5</title>
				<path d="M0 595.28 L0 559.28 L0 595.28 Z" class="st1"/>
				<path d="" class="st2"/>
			</g>
			<g id="shape6-14" v:mID="6" v:groupContext="shape">
				<title>Tabelle.6</title>
				<desc>Transport</desc>
				<v:textBlock v:margins="rect(4,4,4,4)" v:tabSpace="42.5197"/>
				<v:textRect cx="36" cy="577.276" width="72" height="36"/>
				<path d="M72 595.28 L72 559.28 L0 559.28 L0 595.28 L72 595.28 ZM72 595.28 L72 559.28 L0 559.28 L72 559.28 L72 595.28
							 Z" class="st1"/>
				<path d="M72 595.28 L72 559.28" class="st2"/>
				<path d="M0 595.28 L0 559.28" class="st2"/>
				<path d="M0 595.28 L72 595.28" class="st2"/>
				<path d="M72 595.28 L72 559.28" class="st2"/>
				<path d="M0 559.28 L72 559.28" class="st2"/>
				<text x="19.78" y="579.68" class="st3" v:langID="1031"><v:paragraph v:horizAlign="1"/><v:tabList/>Transport</text>			</g>
			<g id="shape7-22" v:mID="7" v:groupContext="shape" transform="translate(58.5,-22.5)">
				<title>Tabelle.7</title>
				<path d="M0 595.28 L9 595.28 L9 586.28 L0 586.28 L0 588.08 L1.8 588.08 L1.8 589.88 L0 589.88 L0 591.68 L1.8 591.68
							 L1.8 593.48 L0 593.48 L0 595.28 ZM-1.8 593.48 L1.8 593.48 L1.8 591.68 L-1.8 591.68 L-1.8 593.48 ZM-1.8
							 589.88 L1.8 589.88 L1.8 588.08 L-1.8 588.08 L-1.8 589.88 Z" class="st4"/>
			</g>
		</g>
		<g id="shape8-24" v:mID="8" v:groupContext="shape" transform="translate(198.425,-368.504)">
			<title>Interface, Socket</title>
			<desc>ITransport</desc>
			<v:userDefs>
				<v:ud v:nameU="Interface" v:val="VT0(1):26"/>
				<v:ud v:nameU="EndSize" v:val="VT0(0.0425):26"/>
				<v:ud v:nameU="MinLength" v:val="VT0(0.25):26"/>
				<v:ud v:nameU="SocketClosure" v:val="VT0(0.1963):26"/>
			</v:userDefs>
			<v:textBlock v:margins="rect(4,4,4,4)" v:tabSpace="42.5197"/>
			<v:textRect cx="-9" cy="586.276" width="43.58" height="17.6036"/>
			<path d="M0 595.28 L0 580.62" class="st5"/>
			<rect v:rectContext="textBkgnd" x="-26.785" y="581.476" width="33.758" height="9.59985" class="st7"/>
			<text x="-26.78" y="588.68" class="st8" v:langID="1031"><v:paragraph/><v:tabList/>ITransport</text>		</g>
		<g id="group9-32" transform="translate(162.425,-251.291)" v:mID="9" v:groupContext="group">
			<v:userDefs>
				<v:ud v:nameU="F" v:val="VT0(0):26"/>
				<v:ud v:nameU="Format" v:val="VT0(0):26"/>
				<v:ud v:nameU="ResizeIcon" v:val="VT0(0):26"/>
			</v:userDefs>
			<title>Component.9</title>
			<g id="shape10-33" v:mID="10" v:groupContext="shape">
				<title>Tabelle.10</title>
				<path d="M72 595.28 L0 595.28 L72 595.28 Z" class="st1"/>
			</g>
			<g id="shape11-36" v:mID="11" v:groupContext="shape">
				<title>Tabelle.11</title>
				<path d="M72 595.28 L0 595.28 L72 595.28 Z" class="st1"/>
			</g>
			<g id="shape12-39" v:mID="12" v:groupContext="shape">
				<title>Tabelle.12</title>
				<path d="M72 595.28 L0 595.28 L72 595.28 Z" class="st1"/>
			</g>
			<g id="shape13-42" v:mID="13" v:groupContext="shape" transform="translate(72,0)">
				<title>Tabelle.13</title>
				<path d="M0 595.28 L0 559.28 L0 595.28 Z" class="st1"/>
				<path d="" class="st2"/>
			</g>
			<g id="shape14-45" v:mID="14" v:groupContext="shape">
				<title>Tabelle.14</title>
				<desc>Kunde</desc>
				<v:textBlock v:margins="rect(4,4,4,4)" v:tabSpace="42.5197"/>
				<v:textRect cx="36" cy="577.276" width="72" height="36"/>
				<path d="M72 595.28 L72 559.28 L0 559.28 L0 595.28 L72 595.28 ZM72 595.28 L72 559.28 L0 559.28 L72 559.28 L72 595.28
							 Z" class="st1"/>
				<path d="M72 595.28 L72 559.28" class="st2"/>
				<path d="M0 595.28 L0 559.28" class="st2"/>
				<path d="M0 595.28 L72 595.28" class="st2"/>
				<path d="M72 595.28 L72 559.28" class="st2"/>
				<path d="M0 559.28 L72 559.28" class="st2"/>
				<text x="25.36" y="579.68" class="st3" v:langID="1031"><v:paragraph v:horizAlign="1"/><v:tabList/>Kunde</text>			</g>
			<g id="shape15-53" v:mID="15" v:groupContext="shape" transform="translate(58.5,-22.5)">
				<title>Tabelle.15</title>
				<path d="M0 595.28 L9 595.28 L9 586.28 L0 586.28 L0 588.08 L1.8 588.08 L1.8 589.88 L0 589.88 L0 591.68 L1.8 591.68
							 L1.8 593.48 L0 593.48 L0 595.28 ZM-1.8 593.48 L1.8 593.48 L1.8 591.68 L-1.8 591.68 L-1.8 593.48 ZM-1.8
							 589.88 L1.8 589.88 L1.8 588.08 L-1.8 588.08 L-1.8 589.88 Z" class="st4"/>
			</g>
		</g>
		<g id="shape16-55" v:mID="16" v:groupContext="shape" transform="translate(198.425,-287.291)">
			<title>Interface, Socket.16</title>
			<desc>IKunde</desc>
			<v:userDefs>
				<v:ud v:nameU="Interface" v:val="VT0(1):26"/>
				<v:ud v:nameU="EndSize" v:val="VT0(0.0425):26"/>
				<v:ud v:nameU="MinLength" v:val="VT0(0.25):26"/>
				<v:ud v:nameU="SocketClosure" v:val="VT0(0.1963):26"/>
			</v:userDefs>
			<v:textBlock v:margins="rect(4,4,4,4)" v:tabSpace="42.5197"/>
			<v:textRect cx="-9" cy="586.276" width="32.58" height="17.6036"/>
			<path d="M0 595.28 L0 580.62" class="st5"/>
			<rect v:rectContext="textBkgnd" x="-21.2867" y="581.476" width="22.7615" height="9.59985" class="st7"/>
			<text x="-21.29" y="588.68" class="st8" v:langID="1031"><v:paragraph/><v:tabList/>IKunde</text>		</g>
		<g id="group17-62" transform="translate(340.157,-359.717)" v:mID="17" v:groupContext="group">
			<v:userDefs>
				<v:ud v:nameU="F" v:val="VT0(0):26"/>
				<v:ud v:nameU="Format" v:val="VT0(0):26"/>
				<v:ud v:nameU="ResizeIcon" v:val="VT0(0):26"/>
			</v:userDefs>
			<title>Component.17</title>
			<g id="shape18-63" v:mID="18" v:groupContext="shape">
				<title>Tabelle.18</title>
				<path d="M72 595.28 L0 595.28 L72 595.28 Z" class="st1"/>
			</g>
			<g id="shape19-66" v:mID="19" v:groupContext="shape">
				<title>Tabelle.19</title>
				<path d="M72 595.28 L0 595.28 L72 595.28 Z" class="st1"/>
			</g>
			<g id="shape20-69" v:mID="20" v:groupContext="shape">
				<title>Tabelle.20</title>
				<path d="M72 595.28 L0 595.28 L72 595.28 Z" class="st1"/>
			</g>
			<g id="shape21-72" v:mID="21" v:groupContext="shape" transform="translate(72,0)">
				<title>Tabelle.21</title>
				<path d="M0 595.28 L0 559.28 L0 595.28 Z" class="st1"/>
				<path d="" class="st2"/>
			</g>
			<g id="shape22-75" v:mID="22" v:groupContext="shape">
				<title>Tabelle.22</title>
				<desc>Auftragserfassung</desc>
				<v:textBlock v:margins="rect(4,4,4,4)" v:tabSpace="42.5197"/>
				<v:textRect cx="36" cy="577.276" width="72" height="36"/>
				<path d="M72 595.28 L72 559.28 L0 559.28 L0 595.28 L72 595.28 ZM72 595.28 L72 559.28 L0 559.28 L72 559.28 L72 595.28
							 Z" class="st1"/>
				<path d="M72 595.28 L72 559.28" class="st2"/>
				<path d="M0 595.28 L0 559.28" class="st2"/>
				<path d="M0 595.28 L72 595.28" class="st2"/>
				<path d="M72 595.28 L72 559.28" class="st2"/>
				<path d="M0 559.28 L72 559.28" class="st2"/>
				<text x="5.83" y="579.68" class="st3" v:langID="1031"><v:paragraph v:horizAlign="1"/><v:tabList/>Auftragserfassung</text>			</g>
			<g id="shape23-83" v:mID="23" v:groupContext="shape" transform="translate(58.5,-22.5)">
				<title>Tabelle.23</title>
				<path d="M0 595.28 L9 595.28 L9 586.28 L0 586.28 L0 588.08 L1.8 588.08 L1.8 589.88 L0 589.88 L0 591.68 L1.8 591.68
							 L1.8 593.48 L0 593.48 L0 595.28 ZM-1.8 593.48 L1.8 593.48 L1.8 591.68 L-1.8 591.68 L-1.8 593.48 ZM-1.8
							 589.88 L1.8 589.88 L1.8 588.08 L-1.8 588.08 L-1.8 589.88 Z" class="st4"/>
			</g>
		</g>
		<g id="shape24-85" v:mID="24" v:groupContext="shape" transform="translate(358.157,-395.717)">
			<title>Interface, Socket.24</title>
			<desc>IAuftragserfassung</desc>
			<v:userDefs>
				<v:ud v:nameU="Interface" v:val="VT0(1):26"/>
				<v:ud v:nameU="EndSize" v:val="VT0(0.0425):26"/>
				<v:ud v:nameU="MinLength" v:val="VT0(0.25):26"/>
				<v:ud v:nameU="SocketClosure" v:val="VT0(0.1963):26"/>
			</v:userDefs>
			<v:textBlock v:margins="rect(4,4,4,4)" v:tabSpace="42.5197"/>
			<v:textRect cx="-16.8661" cy="582.803" width="70.77" height="17.6036"/>
			<path d="M0 595.28 L0.12 571.97" class="st5"/>
			<rect v:rectContext="textBkgnd" x="-48.2505" y="578.003" width="60.9568" height="9.59985" class="st7"/>
			<text x="-48.25" y="585.2" class="st8" v:langID="1031"><v:paragraph/><v:tabList/>IAuftragserfassung</text>		</g>
		<g id="group25-92" transform="translate(551.622,-332.504)" v:mID="25" v:groupContext="group">
			<v:userDefs>
				<v:ud v:nameU="F" v:val="VT0(0):26"/>
				<v:ud v:nameU="Format" v:val="VT0(0):26"/>
				<v:ud v:nameU="ResizeIcon" v:val="VT0(0):26"/>
			</v:userDefs>
			<title>Component.25</title>
			<g id="shape26-93" v:mID="26" v:groupContext="shape">
				<title>Tabelle.26</title>
				<path d="M72 595.28 L0 595.28 L72 595.28 Z" class="st1"/>
			</g>
			<g id="shape27-96" v:mID="27" v:groupContext="shape">
				<title>Tabelle.27</title>
				<path d="M72 595.28 L0 595.28 L72 595.28 Z" class="st1"/>
			</g>
			<g id="shape28-99" v:mID="28" v:groupContext="shape">
				<title>Tabelle.28</title>
				<path d="M72 595.28 L0 595.28 L72 595.28 Z" class="st1"/>
			</g>
			<g id="shape29-102" v:mID="29" v:groupContext="shape" transform="translate(72,0)">
				<title>Tabelle.29</title>
				<path d="M0 595.28 L0 559.28 L0 595.28 Z" class="st1"/>
				<path d="" class="st2"/>
			</g>
			<g id="shape30-105" v:mID="30" v:groupContext="shape">
				<title>Tabelle.30</title>
				<desc>Rechnung</desc>
				<v:textBlock v:margins="rect(4,4,4,4)" v:tabSpace="42.5197"/>
				<v:textRect cx="36" cy="577.276" width="72" height="36"/>
				<path d="M72 595.28 L72 559.28 L0 559.28 L0 595.28 L72 595.28 ZM72 595.28 L72 559.28 L0 559.28 L72 559.28 L72 595.28
							 Z" class="st1"/>
				<path d="M72 595.28 L72 559.28" class="st2"/>
				<path d="M0 595.28 L0 559.28" class="st2"/>
				<path d="M0 595.28 L72 595.28" class="st2"/>
				<path d="M72 595.28 L72 559.28" class="st2"/>
				<path d="M0 559.28 L72 559.28" class="st2"/>
				<text x="19.58" y="579.68" class="st3" v:langID="1031"><v:paragraph v:horizAlign="1"/><v:tabList/>Rechnung</text>			</g>
			<g id="shape31-113" v:mID="31" v:groupContext="shape" transform="translate(58.5,-22.5)">
				<title>Tabelle.31</title>
				<path d="M0 595.28 L9 595.28 L9 586.28 L0 586.28 L0 588.08 L1.8 588.08 L1.8 589.88 L0 589.88 L0 591.68 L1.8 591.68
							 L1.8 593.48 L0 593.48 L0 595.28 ZM-1.8 593.48 L1.8 593.48 L1.8 591.68 L-1.8 591.68 L-1.8 593.48 ZM-1.8
							 589.88 L1.8 589.88 L1.8 588.08 L-1.8 588.08 L-1.8 589.88 Z" class="st4"/>
			</g>
		</g>
		<g id="shape32-115" v:mID="32" v:groupContext="shape" transform="translate(587.622,-368.504)">
			<title>Interface, Socket.32</title>
			<desc>IRechnung</desc>
			<v:userDefs>
				<v:ud v:nameU="Interface" v:val="VT0(1):26"/>
				<v:ud v:nameU="EndSize" v:val="VT0(0.0425):26"/>
				<v:ud v:nameU="MinLength" v:val="VT0(0.25):26"/>
				<v:ud v:nameU="SocketClosure" v:val="VT0(0.1963):26"/>
			</v:userDefs>
			<v:textBlock v:margins="rect(4,4,4,4)" v:tabSpace="42.5197"/>
			<v:textRect cx="-9" cy="586.276" width="44.12" height="17.6036"/>
			<path d="M0 595.28 L0 580.62" class="st5"/>
			<rect v:rectContext="textBkgnd" x="-27.0562" y="581.476" width="34.3004" height="9.59985" class="st7"/>
			<text x="-27.06" y="588.68" class="st8" v:langID="1031"><v:paragraph/><v:tabList/>IRechnung</text>		</g>
		<g id="group65-122" transform="translate(340.157,-226.772)" v:mID="65" v:groupContext="group">
			<v:userDefs>
				<v:ud v:nameU="F" v:val="VT0(0):26"/>
				<v:ud v:nameU="Format" v:val="VT0(0):26"/>
				<v:ud v:nameU="ResizeIcon" v:val="VT0(0):26"/>
			</v:userDefs>
			<title>Component.65</title>
			<g id="shape66-123" v:mID="66" v:groupContext="shape">
				<title>Tabelle.66</title>
				<path d="M72 595.28 L0 595.28 L72 595.28 Z" class="st1"/>
			</g>
			<g id="shape67-126" v:mID="67" v:groupContext="shape">
				<title>Tabelle.67</title>
				<path d="M72 595.28 L0 595.28 L72 595.28 Z" class="st1"/>
			</g>
			<g id="shape68-129" v:mID="68" v:groupContext="shape">
				<title>Tabelle.68</title>
				<path d="M72 595.28 L0 595.28 L72 595.28 Z" class="st1"/>
			</g>
			<g id="shape69-132" v:mID="69" v:groupContext="shape" transform="translate(72,0)">
				<title>Tabelle.69</title>
				<path d="M0 595.28 L0 559.28 L0 595.28 Z" class="st1"/>
				<path d="" class="st2"/>
			</g>
			<g id="shape70-135" v:mID="70" v:groupContext="shape">
				<title>Tabelle.70</title>
				<desc>Produkt</desc>
				<v:textBlock v:margins="rect(4,4,4,4)" v:tabSpace="42.5197"/>
				<v:textRect cx="36" cy="577.276" width="72" height="36"/>
				<path d="M72 595.28 L72 559.28 L0 559.28 L0 595.28 L72 595.28 ZM72 595.28 L72 559.28 L0 559.28 L72 559.28 L72 595.28
							 Z" class="st1"/>
				<path d="M72 595.28 L72 559.28" class="st2"/>
				<path d="M0 595.28 L0 559.28" class="st2"/>
				<path d="M0 595.28 L72 595.28" class="st2"/>
				<path d="M72 595.28 L72 559.28" class="st2"/>
				<path d="M0 559.28 L72 559.28" class="st2"/>
				<text x="22.7" y="579.68" class="st3" v:langID="1031"><v:paragraph v:horizAlign="1"/><v:tabList/>Produkt</text>			</g>
			<g id="shape71-143" v:mID="71" v:groupContext="shape" transform="translate(58.5,-22.5)">
				<title>Tabelle.71</title>
				<path d="M0 595.28 L9 595.28 L9 586.28 L0 586.28 L0 588.08 L1.8 588.08 L1.8 589.88 L0 589.88 L0 591.68 L1.8 591.68
							 L1.8 593.48 L0 593.48 L0 595.28 ZM-1.8 593.48 L1.8 593.48 L1.8 591.68 L-1.8 591.68 L-1.8 593.48 ZM-1.8
							 589.88 L1.8 589.88 L1.8 588.08 L-1.8 588.08 L-1.8 589.88 Z" class="st4"/>
			</g>
		</g>
		<g id="shape72-145" v:mID="72" v:groupContext="shape" transform="translate(376.157,-262.772)">
			<title>Interface, Socket.72</title>
			<desc>IProdukt</desc>
			<v:userDefs>
				<v:ud v:nameU="Interface" v:val="VT0(1):26"/>
				<v:ud v:nameU="EndSize" v:val="VT0(0.0425):26"/>
				<v:ud v:nameU="MinLength" v:val="VT0(0.25):26"/>
				<v:ud v:nameU="SocketClosure" v:val="VT0(0.1963):26"/>
			</v:userDefs>
			<v:textBlock v:margins="rect(4,4,4,4)" v:tabSpace="42.5197"/>
			<v:textRect cx="-9" cy="586.276" width="37.7" height="17.6036"/>
			<path d="M0 595.28 L0 580.62" class="st5"/>
			<rect v:rectContext="textBkgnd" x="-23.8454" y="581.476" width="27.8789" height="9.59985" class="st7"/>
			<text x="-23.85" y="588.68" class="st8" v:langID="1031"><v:paragraph/><v:tabList/>IProdukt</text>		</g>
		<g id="group73-152" transform="translate(340.157,-127.559)" v:mID="73" v:groupContext="group">
			<v:userDefs>
				<v:ud v:nameU="F" v:val="VT0(0):26"/>
				<v:ud v:nameU="Format" v:val="VT0(0):26"/>
				<v:ud v:nameU="ResizeIcon" v:val="VT0(0):26"/>
			</v:userDefs>
			<title>Component.73</title>
			<g id="shape74-153" v:mID="74" v:groupContext="shape">
				<title>Tabelle.74</title>
				<path d="M72 595.28 L0 595.28 L72 595.28 Z" class="st1"/>
			</g>
			<g id="shape75-156" v:mID="75" v:groupContext="shape">
				<title>Tabelle.75</title>
				<path d="M72 595.28 L0 595.28 L72 595.28 Z" class="st1"/>
			</g>
			<g id="shape76-159" v:mID="76" v:groupContext="shape">
				<title>Tabelle.76</title>
				<path d="M72 595.28 L0 595.28 L72 595.28 Z" class="st1"/>
			</g>
			<g id="shape77-162" v:mID="77" v:groupContext="shape" transform="translate(72,0)">
				<title>Tabelle.77</title>
				<path d="M0 595.28 L0 559.28 L0 595.28 Z" class="st1"/>
				<path d="" class="st2"/>
			</g>
			<g id="shape78-165" v:mID="78" v:groupContext="shape">
				<title>Tabelle.78</title>
				<desc>Lager</desc>
				<v:textBlock v:margins="rect(4,4,4,4)" v:tabSpace="42.5197"/>
				<v:textRect cx="36" cy="577.276" width="72" height="36"/>
				<path d="M72 595.28 L72 559.28 L0 559.28 L0 595.28 L72 595.28 ZM72 595.28 L72 559.28 L0 559.28 L72 559.28 L72 595.28
							 Z" class="st1"/>
				<path d="M72 595.28 L72 559.28" class="st2"/>
				<path d="M0 595.28 L0 559.28" class="st2"/>
				<path d="M0 595.28 L72 595.28" class="st2"/>
				<path d="M72 595.28 L72 559.28" class="st2"/>
				<path d="M0 559.28 L72 559.28" class="st2"/>
				<text x="27" y="579.68" class="st3" v:langID="1031"><v:paragraph v:horizAlign="1"/><v:tabList/>Lager</text>			</g>
			<g id="shape79-173" v:mID="79" v:groupContext="shape" transform="translate(58.5,-22.5)">
				<title>Tabelle.79</title>
				<path d="M0 595.28 L9 595.28 L9 586.28 L0 586.28 L0 588.08 L1.8 588.08 L1.8 589.88 L0 589.88 L0 591.68 L1.8 591.68
							 L1.8 593.48 L0 593.48 L0 595.28 ZM-1.8 593.48 L1.8 593.48 L1.8 591.68 L-1.8 591.68 L-1.8 593.48 ZM-1.8
							 589.88 L1.8 589.88 L1.8 588.08 L-1.8 588.08 L-1.8 589.88 Z" class="st4"/>
			</g>
		</g>
		<g id="shape80-175" v:mID="80" v:groupContext="shape" transform="translate(376.157,-163.559)">
			<title>Interface, Socket.80</title>
			<desc>ILager</desc>
			<v:userDefs>
				<v:ud v:nameU="Interface" v:val="VT0(1):26"/>
				<v:ud v:nameU="EndSize" v:val="VT0(0.0425):26"/>
				<v:ud v:nameU="MinLength" v:val="VT0(0.25):26"/>
				<v:ud v:nameU="SocketClosure" v:val="VT0(0.1963):26"/>
			</v:userDefs>
			<v:textBlock v:margins="rect(4,4,4,4)" v:tabSpace="42.5197"/>
			<v:textRect cx="-9" cy="586.276" width="29.56" height="17.6036"/>
			<path d="M0 595.28 L0 580.62" class="st5"/>
			<rect v:rectContext="textBkgnd" x="-19.779" y="581.476" width="19.746" height="9.59985" class="st7"/>
			<text x="-19.78" y="588.68" class="st8" v:langID="1031"><v:paragraph/><v:tabList/>ILager</text>		</g>
		<g id="group81-182" transform="translate(721.701,-255.118)" v:mID="81" v:groupContext="group">
			<v:userDefs>
				<v:ud v:nameU="F" v:val="VT0(0):26"/>
				<v:ud v:nameU="Format" v:val="VT0(0):26"/>
				<v:ud v:nameU="ResizeIcon" v:val="VT0(0):26"/>
			</v:userDefs>
			<title>Component.81</title>
			<g id="shape82-183" v:mID="82" v:groupContext="shape">
				<title>Tabelle.82</title>
				<path d="M72 595.28 L0 595.28 L72 595.28 Z" class="st1"/>
			</g>
			<g id="shape83-186" v:mID="83" v:groupContext="shape">
				<title>Tabelle.83</title>
				<path d="M72 595.28 L0 595.28 L72 595.28 Z" class="st1"/>
			</g>
			<g id="shape84-189" v:mID="84" v:groupContext="shape">
				<title>Tabelle.84</title>
				<path d="M72 595.28 L0 595.28 L72 595.28 Z" class="st1"/>
			</g>
			<g id="shape85-192" v:mID="85" v:groupContext="shape" transform="translate(72,0)">
				<title>Tabelle.85</title>
				<path d="M0 595.28 L0 559.28 L0 595.28 Z" class="st1"/>
				<path d="" class="st2"/>
			</g>
			<g id="shape86-195" v:mID="86" v:groupContext="shape">
				<title>Tabelle.86</title>
				<desc>Lieferant</desc>
				<v:textBlock v:margins="rect(4,4,4,4)" v:tabSpace="42.5197"/>
				<v:textRect cx="36" cy="577.276" width="72" height="36"/>
				<path d="M72 595.28 L72 559.28 L0 559.28 L0 595.28 L72 595.28 ZM72 595.28 L72 559.28 L0 559.28 L72 559.28 L72 595.28
							 Z" class="st1"/>
				<path d="M72 595.28 L72 559.28" class="st2"/>
				<path d="M0 595.28 L0 559.28" class="st2"/>
				<path d="M0 595.28 L72 595.28" class="st2"/>
				<path d="M72 595.28 L72 559.28" class="st2"/>
				<path d="M0 559.28 L72 559.28" class="st2"/>
				<text x="21.1" y="579.68" class="st3" v:langID="1031"><v:paragraph v:horizAlign="1"/><v:tabList/>Lieferant</text>			</g>
			<g id="shape87-203" v:mID="87" v:groupContext="shape" transform="translate(58.5,-22.5)">
				<title>Tabelle.87</title>
				<path d="M0 595.28 L9 595.28 L9 586.28 L0 586.28 L0 588.08 L1.8 588.08 L1.8 589.88 L0 589.88 L0 591.68 L1.8 591.68
							 L1.8 593.48 L0 593.48 L0 595.28 ZM-1.8 593.48 L1.8 593.48 L1.8 591.68 L-1.8 591.68 L-1.8 593.48 ZM-1.8
							 589.88 L1.8 589.88 L1.8 588.08 L-1.8 588.08 L-1.8 589.88 Z" class="st4"/>
			</g>
		</g>
		<g id="shape88-205" v:mID="88" v:groupContext="shape" transform="translate(721.701,-273.118)">
			<title>Interface, Socket.88</title>
			<desc>ILieferant</desc>
			<v:userDefs>
				<v:ud v:nameU="Interface" v:val="VT0(1):26"/>
				<v:ud v:nameU="EndSize" v:val="VT0(0.0425):26"/>
				<v:ud v:nameU="MinLength" v:val="VT0(0.25):26"/>
				<v:ud v:nameU="SocketClosure" v:val="VT0(0.1963):26"/>
			</v:userDefs>
			<v:textBlock v:margins="rect(4,4,4,4)" v:tabSpace="42.5197"/>
			<v:textRect cx="-9" cy="586.276" width="40.94" height="17.6036"/>
			<path d="M0 595.28 L-14.66 595.28" class="st5"/>
			<rect v:rectContext="textBkgnd" x="-25.4663" y="581.476" width="31.1207" height="9.59985" class="st7"/>
			<text x="-25.47" y="588.68" class="st8" v:langID="1031"><v:paragraph/><v:tabList/>ILieferant</text>		</g>
		<g id="group89-212" transform="translate(551.622,-255.118)" v:mID="89" v:groupContext="group">
			<v:userDefs>
				<v:ud v:nameU="F" v:val="VT0(0):26"/>
				<v:ud v:nameU="Format" v:val="VT0(0):26"/>
				<v:ud v:nameU="ResizeIcon" v:val="VT0(0):26"/>
			</v:userDefs>
			<title>Component.89</title>
			<g id="shape90-213" v:mID="90" v:groupContext="shape">
				<title>Tabelle.90</title>
				<path d="M72 595.28 L0 595.28 L72 595.28 Z" class="st1"/>
			</g>
			<g id="shape91-216" v:mID="91" v:groupContext="shape">
				<title>Tabelle.91</title>
				<path d="M72 595.28 L0 595.28 L72 595.28 Z" class="st1"/>
			</g>
			<g id="shape92-219" v:mID="92" v:groupContext="shape">
				<title>Tabelle.92</title>
				<path d="M72 595.28 L0 595.28 L72 595.28 Z" class="st1"/>
			</g>
			<g id="shape93-222" v:mID="93" v:groupContext="shape" transform="translate(72,0)">
				<title>Tabelle.93</title>
				<path d="M0 595.28 L0 559.28 L0 595.28 Z" class="st1"/>
				<path d="" class="st2"/>
			</g>
			<g id="shape94-225" v:mID="94" v:groupContext="shape">
				<title>Tabelle.94</title>
				<desc>Einkauf</desc>
				<v:textBlock v:margins="rect(4,4,4,4)" v:tabSpace="42.5197"/>
				<v:textRect cx="36" cy="577.276" width="72" height="36"/>
				<path d="M72 595.28 L72 559.28 L0 559.28 L0 595.28 L72 595.28 ZM72 595.28 L72 559.28 L0 559.28 L72 559.28 L72 595.28
							 Z" class="st1"/>
				<path d="M72 595.28 L72 559.28" class="st2"/>
				<path d="M0 595.28 L0 559.28" class="st2"/>
				<path d="M0 595.28 L72 595.28" class="st2"/>
				<path d="M72 595.28 L72 559.28" class="st2"/>
				<path d="M0 559.28 L72 559.28" class="st2"/>
				<text x="23.61" y="579.68" class="st3" v:langID="1031"><v:paragraph v:horizAlign="1"/><v:tabList/>Einkauf</text>			</g>
			<g id="shape95-233" v:mID="95" v:groupContext="shape" transform="translate(58.5,-22.5)">
				<title>Tabelle.95</title>
				<path d="M0 595.28 L9 595.28 L9 586.28 L0 586.28 L0 588.08 L1.8 588.08 L1.8 589.88 L0 589.88 L0 591.68 L1.8 591.68
							 L1.8 593.48 L0 593.48 L0 595.28 ZM-1.8 593.48 L1.8 593.48 L1.8 591.68 L-1.8 591.68 L-1.8 593.48 ZM-1.8
							 589.88 L1.8 589.88 L1.8 588.08 L-1.8 588.08 L-1.8 589.88 Z" class="st4"/>
			</g>
		</g>
		<g id="shape96-235" v:mID="96" v:groupContext="shape" transform="translate(587.622,-291.118)">
			<title>Interface, Socket.96</title>
			<desc>IEinkauf</desc>
			<v:userDefs>
				<v:ud v:nameU="Interface" v:val="VT0(1):26"/>
				<v:ud v:nameU="EndSize" v:val="VT0(0.0425):26"/>
				<v:ud v:nameU="MinLength" v:val="VT0(0.25):26"/>
				<v:ud v:nameU="SocketClosure" v:val="VT0(0.1963):26"/>
			</v:userDefs>
			<v:textBlock v:margins="rect(4,4,4,4)" v:tabSpace="42.5197"/>
			<v:textRect cx="-13.6063" cy="588.756" width="35.89" height="17.6036"/>
			<path d="M0 595.28 L0 580.62" class="st5"/>
			<rect v:rectContext="textBkgnd" x="-27.5494" y="583.956" width="26.0741" height="9.59985" class="st7"/>
			<text x="-27.55" y="591.16" class="st8" v:langID="1031"><v:paragraph/><v:tabList/>IEinkauf</text>		</g>
		<g id="group97-242" transform="translate(162.425,-467.717)" v:mID="97" v:groupContext="group">
			<v:userDefs>
				<v:ud v:nameU="F" v:val="VT0(1):26"/>
				<v:ud v:nameU="Format" v:val="VT0(0):26"/>
				<v:ud v:nameU="ActiveObject" v:prompt="0,0626" v:val="VT0(0):26"/>
			</v:userDefs>
			<title>Class</title>
			<g id="shape98-243" v:mID="98" v:groupContext="shape" transform="translate(517.89,0)">
				<title>Tabelle.98</title>
				<path d="M0 595.28 L0 577.28 L0 595.28 Z" class="st1"/>
			</g>
			<g id="shape99-246" v:mID="99" v:groupContext="shape">
				<title>Tabelle.99</title>
				<path d="M517.89 595.28 L0 595.28 L517.89 595.28 Z" class="st1"/>
			</g>
			<g id="shape100-249" v:mID="100" v:groupContext="shape">
				<title>Tabelle.100</title>
				<path d="M517.89 595.28 L0 595.28 L517.89 595.28 Z" class="st1"/>
			</g>
			<g id="shape101-252" v:mID="101" v:groupContext="shape">
				<title>Tabelle.101</title>
				<path d="M517.89 595.28 L0 595.28 L517.89 595.28 Z" class="st1"/>
			</g>
			<g id="shape102-255" v:mID="102" v:groupContext="shape">
				<title>Tabelle.102</title>
				<desc>Fassade</desc>
				<v:userDefs>
					<v:ud v:nameU="TabSize" v:val="VT0(0.125):0"/>
					<v:ud v:nameU="TabSize" v:prompt="" v:val="VT0(0.0625):26"/>
				</v:userDefs>
				<v:textBlock v:margins="rect(4,4,4,4)" v:tabSpace="42.5197"/>
				<v:textRect cx="258.945" cy="586.276" width="517.89" height="18"/>
				<path d="M517.89 595.28 L517.89 577.28 L0 577.28 L0 595.28 L517.89 595.28 ZM0 595.28 L0 577.28 L0 595.28 ZM517.89
							 577.28 L517.89 595.28 L517.89 577.28 Z" class="st1"/>
				<path d="M517.89 595.28 L517.89 577.28" class="st2"/>
				<path d="M0 595.28 L0 577.28" class="st2"/>
				<path d="M0 577.28 L517.89 577.28" class="st2"/>
				<path d="M0 595.28 L517.89 595.28" class="st2"/>
				<text x="245.81" y="588.68" class="st3" v:langID="1031"><v:paragraph v:horizAlign="1"/><v:tabList/>Fassade</text>			</g>
		</g>
		<g id="shape103-262" v:mID="103" v:groupContext="shape" transform="translate(394.157,-395.717)">
			<title>Interface, Socket.103</title>
			<desc>IManagement</desc>
			<v:userDefs>
				<v:ud v:nameU="Interface" v:val="VT0(1):26"/>
				<v:ud v:nameU="EndSize" v:val="VT0(0.0425):26"/>
				<v:ud v:nameU="MinLength" v:val="VT0(0.25):26"/>
				<v:ud v:nameU="SocketClosure" v:val="VT0(0.1963):26"/>
			</v:userDefs>
			<v:textBlock v:margins="rect(4,4,4,4)" v:tabSpace="42.5197"/>
			<v:textRect cx="26.5039" cy="582.803" width="55.54" height="17.6036"/>
			<path d="M0 595.28 L-0.12 571.97" class="st5"/>
			<rect v:rectContext="textBkgnd" x="2.73691" y="578.003" width="45.7221" height="9.59985" class="st7"/>
			<text x="2.74" y="585.2" class="st8" v:langID="1031"><v:paragraph/><v:tabList/>IManagement</text>		</g>
		<g id="shape109-269" v:mID="109" v:groupContext="shape" transform="translate(421.37,-467.717)">
			<title>Interface, Socket.109</title>
			<v:userDefs>
				<v:ud v:nameU="Interface" v:val="VT0(1):26"/>
				<v:ud v:nameU="EndSize" v:val="VT0(0.0425):26"/>
				<v:ud v:nameU="MinLength" v:val="VT0(0.25):26"/>
				<v:ud v:nameU="SocketClosure" v:val="VT0(0.1963):26"/>
				<v:ud v:nameU="Interface" v:prompt="" v:val="VT0(2):26"/>
				<v:ud v:nameU="EndSize" v:prompt="" v:val="VT0(0.0765):26"/>
			</v:userDefs>
			<path d="M0 595.28 L-24.51 635.91" class="st9"/>
			<path d="M-23.28 644.34 A5.508 5.508 -180 1 0 -32.54 638.76" class="st9"/>
		</g>
		<g id="shape110-273" v:mID="110" v:groupContext="shape" transform="translate(291.898,-467.717)">
			<title>Interface, Socket.110</title>
			<v:userDefs>
				<v:ud v:nameU="Interface" v:val="VT0(1):26"/>
				<v:ud v:nameU="EndSize" v:val="VT0(0.0425):26"/>
				<v:ud v:nameU="MinLength" v:val="VT0(0.25):26"/>
				<v:ud v:nameU="SocketClosure" v:val="VT0(0.1963):26"/>
				<v:ud v:nameU="Interface" v:prompt="" v:val="VT0(2):26"/>
				<v:ud v:nameU="EndSize" v:prompt="" v:val="VT0(0.0765):26"/>
			</v:userDefs>
			<path d="M0 595.28 L61.85 637.52" class="st9"/>
			<path d="M70.34 636.77 A5.508 5.508 -180 1 0 64.24 645.7" class="st9"/>
		</g>
		<g id="shape111-277" v:mID="111" v:groupContext="shape" transform="translate(394.157,-359.717)">
			<title>Interface, Socket.111</title>
			<v:userDefs>
				<v:ud v:nameU="Interface" v:val="VT0(1):26"/>
				<v:ud v:nameU="EndSize" v:val="VT0(0.0425):26"/>
				<v:ud v:nameU="MinLength" v:val="VT0(0.25):26"/>
				<v:ud v:nameU="SocketClosure" v:val="VT0(0.1963):26"/>
				<v:ud v:nameU="Interface" v:prompt="" v:val="VT0(2):26"/>
				<v:ud v:nameU="EndSize" v:prompt="" v:val="VT0(0.0765):26"/>
			</v:userDefs>
			<path d="M0 595.28 L188.14 644.48" class="st9"/>
			<path d="M195.87 640.92 A5.508 5.508 -180 1 0 193.14 651.37" class="st9"/>
		</g>
		<g id="shape112-281" v:mID="112" v:groupContext="shape" transform="translate(412.157,-386.717)">
			<title>Interface, Socket.112</title>
			<v:userDefs>
				<v:ud v:nameU="Interface" v:val="VT0(1):26"/>
				<v:ud v:nameU="EndSize" v:val="VT0(0.0425):26"/>
				<v:ud v:nameU="MinLength" v:val="VT0(0.25):26"/>
				<v:ud v:nameU="SocketClosure" v:val="VT0(0.1963):26"/>
				<v:ud v:nameU="Interface" v:prompt="" v:val="VT0(2):26"/>
				<v:ud v:nameU="EndSize" v:prompt="" v:val="VT0(0.0765):26"/>
			</v:userDefs>
			<path d="M0 595.28 L169.96 595.48" class="st9"/>
			<path d="M176.55 590.09 A5.508 5.508 -180 1 0 176.53 600.89" class="st9"/>
		</g>
		<g id="shape124-285" v:mID="124" v:groupContext="shape" transform="translate(358.157,-359.717)">
			<title>Interface, Socket.124</title>
			<v:userDefs>
				<v:ud v:nameU="Interface" v:val="VT0(1):26"/>
				<v:ud v:nameU="EndSize" v:val="VT0(0.0425):26"/>
				<v:ud v:nameU="MinLength" v:val="VT0(0.25):26"/>
				<v:ud v:nameU="SocketClosure" v:val="VT0(0.1963):26"/>
				<v:ud v:nameU="Interface" v:prompt="" v:val="VT0(2):26"/>
				<v:ud v:nameU="EndSize" v:prompt="" v:val="VT0(0.0765):26"/>
			</v:userDefs>
			<path d="M0 595.28 L-154.52 647.92" class="st9"/>
			<path d="M-159.01 655.16 A5.508 5.508 -180 1 0 -162.49 644.93" class="st9"/>
		</g>
		<g id="shape125-289" v:mID="125" v:groupContext="shape" transform="translate(340.157,-386.717)">
			<title>Interface, Socket.125</title>
			<v:userDefs>
				<v:ud v:nameU="Interface" v:val="VT0(1):26"/>
				<v:ud v:nameU="EndSize" v:val="VT0(0.0425):26"/>
				<v:ud v:nameU="MinLength" v:val="VT0(0.25):26"/>
				<v:ud v:nameU="SocketClosure" v:val="VT0(0.1963):26"/>
				<v:ud v:nameU="Interface" v:prompt="" v:val="VT0(2):26"/>
				<v:ud v:nameU="EndSize" v:prompt="" v:val="VT0(0.0765):26"/>
			</v:userDefs>
			<path d="M0 595.28 L-136.22 595.48" class="st9"/>
			<path d="M-142.8 600.89 A5.508 5.508 -180 1 0 -142.81 590.09" class="st9"/>
		</g>
		<g id="shape146-293" v:mID="146" v:groupContext="shape" transform="translate(376.157,-359.717)">
			<title>Interface, Socket.146</title>
			<v:userDefs>
				<v:ud v:nameU="Interface" v:val="VT0(1):26"/>
				<v:ud v:nameU="EndSize" v:val="VT0(0.0425):26"/>
				<v:ud v:nameU="MinLength" v:val="VT0(0.25):26"/>
				<v:ud v:nameU="SocketClosure" v:val="VT0(0.1963):26"/>
				<v:ud v:nameU="Interface" v:prompt="" v:val="VT0(2):26"/>
				<v:ud v:nameU="EndSize" v:prompt="" v:val="VT0(0.0765):26"/>
			</v:userDefs>
			<path d="M0 595.28 L-0 668.71" class="st9"/>
			<path d="M5.4 675.29 A5.508 5.508 -180 1 0 -5.4 675.29" class="st9"/>
		</g>
		<g id="shape147-297" v:mID="147" v:groupContext="shape" transform="translate(551.622,-282.118)">
			<title>Interface, Socket.147</title>
			<v:userDefs>
				<v:ud v:nameU="Interface" v:val="VT0(1):26"/>
				<v:ud v:nameU="EndSize" v:val="VT0(0.0425):26"/>
				<v:ud v:nameU="MinLength" v:val="VT0(0.25):26"/>
				<v:ud v:nameU="SocketClosure" v:val="VT0(0.1963):26"/>
				<v:ud v:nameU="Interface" v:prompt="" v:val="VT0(2):26"/>
				<v:ud v:nameU="EndSize" v:prompt="" v:val="VT0(0.0765):26"/>
			</v:userDefs>
			<path d="M0 595.28 L-169.96 596.58" class="st9"/>
			<path d="M-176.5 602.03 A5.508 5.508 -180 1 0 -176.58 591.23" class="st9"/>
		</g>
		<g id="shape148-301" v:mID="148" v:groupContext="shape" transform="translate(376.157,-226.772)">
			<title>Interface, Socket.148</title>
			<v:userDefs>
				<v:ud v:nameU="Interface" v:val="VT0(1):26"/>
				<v:ud v:nameU="EndSize" v:val="VT0(0.0425):26"/>
				<v:ud v:nameU="MinLength" v:val="VT0(0.25):26"/>
				<v:ud v:nameU="SocketClosure" v:val="VT0(0.1963):26"/>
				<v:ud v:nameU="Interface" v:prompt="" v:val="VT0(2):26"/>
				<v:ud v:nameU="EndSize" v:prompt="" v:val="VT0(0.0765):26"/>
			</v:userDefs>
			<path d="M0 595.28 L-0 634.98" class="st9"/>
			<path d="M5.4 641.56 A5.508 5.508 -180 1 0 -5.4 641.56" class="st9"/>
		</g>
		<g id="shape149-305" v:mID="149" v:groupContext="shape" transform="translate(623.622,-273.118)">
			<title>Interface, Socket.149</title>
			<v:userDefs>
				<v:ud v:nameU="Interface" v:val="VT0(1):26"/>
				<v:ud v:nameU="EndSize" v:val="VT0(0.0425):26"/>
				<v:ud v:nameU="MinLength" v:val="VT0(0.25):26"/>
				<v:ud v:nameU="SocketClosure" v:val="VT0(0.1963):26"/>
				<v:ud v:nameU="Interface" v:prompt="" v:val="VT0(2):26"/>
				<v:ud v:nameU="EndSize" v:prompt="" v:val="VT0(0.0765):26"/>
			</v:userDefs>
			<path d="M0 595.28 L74.57 595.28" class="st9"/>
			<path d="M81.15 589.87 A5.508 5.508 -180 1 0 81.15 600.68" class="st9"/>
		</g>
		<g id="shape150-309" v:mID="150" v:groupContext="shape" transform="translate(587.622,-255.118)">
			<title>Interface, Socket.150</title>
			<v:userDefs>
				<v:ud v:nameU="Interface" v:val="VT0(1):26"/>
				<v:ud v:nameU="EndSize" v:val="VT0(0.0425):26"/>
				<v:ud v:nameU="MinLength" v:val="VT0(0.25):26"/>
				<v:ud v:nameU="SocketClosure" v:val="VT0(0.1963):26"/>
				<v:ud v:nameU="Interface" v:prompt="" v:val="VT0(2):26"/>
				<v:ud v:nameU="EndSize" v:prompt="" v:val="VT0(0.0765):26"/>
			</v:userDefs>
			<path d="M0 595.28 L-206.26 667.03" class="st9"/>
			<path d="M-210.7 674.29 A5.508 5.508 -180 1 0 -214.25 664.09" class="st9"/>
		</g>
	</g>
</svg>
